<mxfile host="app.diagrams.net" modified="2024-02-11T11:53:39.085Z" agent="Mozilla/5.0 (Windows NT 10.0; Win64; x64) AppleWebKit/537.36 (KHTML, like Gecko) Chrome/121.0.0.0 Safari/537.36 Edg/121.0.0.0" etag="LnBVMY-p7892NwM8m3SJ" version="23.1.2" type="device">
  <diagram name="Page-1" id="65TRZTyE6jBAc-IG8p_M">
    <mxGraphModel dx="1423" dy="747" grid="1" gridSize="10" guides="1" tooltips="1" connect="1" arrows="1" fold="1" page="1" pageScale="1" pageWidth="827" pageHeight="1169" math="0" shadow="0">
      <root>
        <mxCell id="0" />
        <mxCell id="1" parent="0" />
        <mxCell id="R0KrfzqaYKyNT-aumEG5-3" value="&lt;font style=&quot;font-size: 12px;&quot;&gt;Inmate Management Subsystem&lt;br style=&quot;font-size: 12px;&quot;&gt;&lt;/font&gt;" style="rounded=0;whiteSpace=wrap;html=1;align=center;verticalAlign=top;fillColor=none;fontSize=12;" vertex="1" parent="1">
          <mxGeometry x="192" y="40" width="608" height="560" as="geometry" />
        </mxCell>
        <mxCell id="5dWf0GG96KCBTqZGnZEv-1" value="&lt;font style=&quot;font-size: 12px;&quot;&gt;Correctional&lt;br style=&quot;font-size: 12px;&quot;&gt;Officer&lt;/font&gt;" style="shape=umlActor;verticalLabelPosition=bottom;verticalAlign=top;html=1;outlineConnect=0;fillColor=none;fontSize=12;" parent="1" vertex="1">
          <mxGeometry x="40" y="300" width="38" height="80" as="geometry" />
        </mxCell>
        <mxCell id="5dWf0GG96KCBTqZGnZEv-2" value="Search inmate profile" style="ellipse;whiteSpace=wrap;html=1;fontSize=12;fillColor=none;strokeColor=default;" parent="1" vertex="1">
          <mxGeometry x="230" y="120" width="190" height="80" as="geometry" />
        </mxCell>
        <mxCell id="R0KrfzqaYKyNT-aumEG5-5" value="Select inmate details to update" style="ellipse;whiteSpace=wrap;html=1;fontSize=12;fillColor=none;" vertex="1" parent="1">
          <mxGeometry x="230" y="240" width="190" height="80" as="geometry" />
        </mxCell>
        <mxCell id="R0KrfzqaYKyNT-aumEG5-6" value="Edit inmate details" style="ellipse;whiteSpace=wrap;html=1;fontSize=12;fillColor=none;" vertex="1" parent="1">
          <mxGeometry x="230" y="360" width="190" height="80" as="geometry" />
        </mxCell>
        <mxCell id="R0KrfzqaYKyNT-aumEG5-8" value="Review and update" style="ellipse;whiteSpace=wrap;html=1;fontSize=12;fillColor=none;" vertex="1" parent="1">
          <mxGeometry x="230" y="480" width="190" height="80" as="geometry" />
        </mxCell>
        <mxCell id="R0KrfzqaYKyNT-aumEG5-9" value="Update inmate profile" style="ellipse;whiteSpace=wrap;html=1;fontSize=12;fillColor=none;" vertex="1" parent="1">
          <mxGeometry x="572" y="300" width="190" height="80" as="geometry" />
        </mxCell>
        <mxCell id="R0KrfzqaYKyNT-aumEG5-10" value="&amp;lt;&amp;lt;includes&amp;gt;&amp;gt;" style="endArrow=open;endSize=12;dashed=1;html=1;rounded=0;exitX=0.5;exitY=1;exitDx=0;exitDy=0;entryX=1;entryY=0.5;entryDx=0;entryDy=0;fontSize=12;" edge="1" parent="1" source="R0KrfzqaYKyNT-aumEG5-9" target="R0KrfzqaYKyNT-aumEG5-8">
          <mxGeometry width="160" relative="1" as="geometry">
            <mxPoint x="306" y="540" as="sourcePoint" />
            <mxPoint x="610" y="540" as="targetPoint" />
          </mxGeometry>
        </mxCell>
        <mxCell id="R0KrfzqaYKyNT-aumEG5-12" value="&amp;lt;&amp;lt;includes&amp;gt;&amp;gt;" style="endArrow=open;endSize=12;dashed=1;html=1;rounded=0;exitX=0;exitY=1;exitDx=0;exitDy=0;entryX=1;entryY=0.5;entryDx=0;entryDy=0;fontSize=12;" edge="1" parent="1" source="R0KrfzqaYKyNT-aumEG5-9" target="R0KrfzqaYKyNT-aumEG5-6">
          <mxGeometry width="160" relative="1" as="geometry">
            <mxPoint x="686" y="500" as="sourcePoint" />
            <mxPoint x="477" y="690" as="targetPoint" />
          </mxGeometry>
        </mxCell>
        <mxCell id="R0KrfzqaYKyNT-aumEG5-13" value="&amp;lt;&amp;lt;includes&amp;gt;&amp;gt;" style="endArrow=open;endSize=12;dashed=1;html=1;rounded=0;exitX=0;exitY=0;exitDx=0;exitDy=0;entryX=1;entryY=0.5;entryDx=0;entryDy=0;fontSize=12;" edge="1" parent="1" source="R0KrfzqaYKyNT-aumEG5-9" target="R0KrfzqaYKyNT-aumEG5-5">
          <mxGeometry width="160" relative="1" as="geometry">
            <mxPoint x="705" y="520" as="sourcePoint" />
            <mxPoint x="496" y="710" as="targetPoint" />
          </mxGeometry>
        </mxCell>
        <mxCell id="R0KrfzqaYKyNT-aumEG5-14" value="&amp;lt;&amp;lt;includes&amp;gt;&amp;gt;" style="endArrow=open;endSize=12;dashed=1;html=1;rounded=0;exitX=0.5;exitY=0;exitDx=0;exitDy=0;entryX=1;entryY=0.6;entryDx=0;entryDy=0;entryPerimeter=0;fontSize=12;" edge="1" parent="1" source="R0KrfzqaYKyNT-aumEG5-9" target="5dWf0GG96KCBTqZGnZEv-2">
          <mxGeometry width="160" relative="1" as="geometry">
            <mxPoint x="724" y="540" as="sourcePoint" />
            <mxPoint x="515" y="730" as="targetPoint" />
          </mxGeometry>
        </mxCell>
        <mxCell id="R0KrfzqaYKyNT-aumEG5-15" value="" style="endArrow=none;html=1;rounded=0;exitX=0;exitY=0.5;exitDx=0;exitDy=0;fontSize=12;" edge="1" parent="1" source="5dWf0GG96KCBTqZGnZEv-2" target="5dWf0GG96KCBTqZGnZEv-1">
          <mxGeometry width="50" height="50" relative="1" as="geometry">
            <mxPoint x="21" y="740" as="sourcePoint" />
            <mxPoint x="116" y="640" as="targetPoint" />
          </mxGeometry>
        </mxCell>
        <mxCell id="R0KrfzqaYKyNT-aumEG5-16" value="" style="endArrow=none;html=1;rounded=0;exitX=0;exitY=0.5;exitDx=0;exitDy=0;fontSize=12;" edge="1" parent="1" source="R0KrfzqaYKyNT-aumEG5-5" target="5dWf0GG96KCBTqZGnZEv-1">
          <mxGeometry width="50" height="50" relative="1" as="geometry">
            <mxPoint x="249" y="190" as="sourcePoint" />
            <mxPoint x="135" y="362" as="targetPoint" />
          </mxGeometry>
        </mxCell>
        <mxCell id="R0KrfzqaYKyNT-aumEG5-17" value="" style="endArrow=none;html=1;rounded=0;exitX=0;exitY=0.5;exitDx=0;exitDy=0;fontSize=12;" edge="1" parent="1" source="R0KrfzqaYKyNT-aumEG5-6" target="5dWf0GG96KCBTqZGnZEv-1">
          <mxGeometry width="50" height="50" relative="1" as="geometry">
            <mxPoint x="268" y="210" as="sourcePoint" />
            <mxPoint x="154" y="382" as="targetPoint" />
          </mxGeometry>
        </mxCell>
        <mxCell id="R0KrfzqaYKyNT-aumEG5-19" value="" style="endArrow=none;html=1;rounded=0;exitX=0;exitY=0.5;exitDx=0;exitDy=0;fontSize=12;" edge="1" parent="1" source="R0KrfzqaYKyNT-aumEG5-8" target="5dWf0GG96KCBTqZGnZEv-1">
          <mxGeometry width="50" height="50" relative="1" as="geometry">
            <mxPoint x="306" y="250" as="sourcePoint" />
            <mxPoint x="192" y="422" as="targetPoint" />
          </mxGeometry>
        </mxCell>
      </root>
    </mxGraphModel>
  </diagram>
</mxfile>
